<svg fill="none" xmlns="http://www.w3.org/2000/svg" viewBox="7.72 34.84 85.2 29.55"> <path d="M88.4407 58.6579C89.339 58.7257 90.9661 58.6579 91.5255 58.3868C91.9322 58.2004 92.1865 57.7767 92.1695 57.3192C92.1017 55.0825 91.8814 52.9474 91.1526 51.0665C90.661 49.7956 89.7288 48.7112 88.5424 48.0503C85.1356 46.1694 79 45.051 71.6271 44.2546C68.8983 43.9666 66.2712 43.0346 63.9492 41.5604C59.4746 38.7136 55.2204 36.7311 51.2712 36.0363C50.8136 35.9516 50.339 35.9007 49.8644 35.8669C46.3051 35.6466 42.7119 35.5788 39.0509 35.5957C36.8136 35.5957 34.5763 35.8669 32.4068 36.3922C26.9153 37.7478 22.2882 40.3234 18.7966 40.9842C16.6272 41.357 12.8475 41.3231 11.3221 41.5095C10.9322 41.5604 10.6102 41.8315 10.4916 42.2043C10.1356 43.2888 9.93224 45.0341 9.72885 46.8133C9.678 47.3217 9.40681 47.7961 9.00003 48.1181C8.93224 48.1689 8.86444 48.2198 8.79664 48.2706C8.59325 48.4062 8.47461 48.6434 8.47461 48.8976L8.77969 54.1166C8.81359 54.7775 9.30512 55.3028 9.94919 55.4214L17.339 56.6923C17.6441 56.76 17.9492 56.8109 18.2373 56.8786M74.4238 58.6918H32.0339M41.4746 37.8833C44.4068 37.9003 47.1356 38.0019 49.7627 38.1544C50.1695 38.1714 50.5424 38.2222 50.9153 38.29C54.7458 38.9508 59.2543 41.0351 64.6441 44.6613C64.4746 44.6613 49.1017 44.2546 43.1526 43.8818L42.8814 43.6616L41.2543 38.1714C41.2034 38.0358 41.3221 37.8833 41.4746 37.8833ZM29.0339 41.357C30.2882 40.1201 33.5424 38.9678 38.4746 38.0189C38.6271 37.985 38.7966 37.968 38.9492 37.9511C39.0678 37.9511 39.1865 38.0189 39.2034 38.1375L40.2204 43.4921C40.2373 43.5938 40.1526 43.6954 40.0509 43.6954C36.8983 43.5091 33.7627 43.3396 30.6272 43.1871C30.3729 43.1871 30.1187 43.1024 29.9153 42.9668C29.4068 42.6279 29.0678 42.2721 28.9153 41.8654C28.8475 41.6959 28.8983 41.4926 29.0339 41.374V41.357Z" stroke="#15273D" stroke-width="1.5" stroke-miterlimit="10"></path> <path d="M74.4238 56.7507C74.4238 60.5634 77.5086 63.6473 81.3221 63.6473C85.1357 63.6473 88.2204 60.5634 88.2204 56.7507C88.2204 52.9381 85.1357 49.8541 81.3221 49.8541C77.5086 49.8541 74.4238 52.9381 74.4238 56.7507ZM76.6781 56.7507C76.6781 54.192 78.7628 52.1078 81.3221 52.1078C83.8815 52.1078 85.9662 54.192 85.9662 56.7507C85.9662 59.3094 83.8815 61.3937 81.3221 61.3937C78.7628 61.3937 76.6781 59.3094 76.6781 56.7507Z" stroke="#15273D" stroke-width="1.5" stroke-miterlimit="10"></path> <path d="M18.2368 56.7507C18.2368 60.5634 21.3216 63.6473 25.1351 63.6473C28.9487 63.6473 32.0334 60.5634 32.0334 56.7507C32.0334 52.9381 28.9487 49.8541 25.1351 49.8541C21.3216 49.8541 18.2368 52.9381 18.2368 56.7507ZM20.4911 56.7507C20.4911 54.192 22.5758 52.1078 25.1351 52.1078C27.6944 52.1078 29.7792 54.192 29.7792 56.7507C29.7792 59.3094 27.6944 61.3937 25.1351 61.3937C22.5758 61.3937 20.4911 59.3094 20.4911 56.7507Z" stroke="#15273D" stroke-width="1.5" stroke-miterlimit="10"></path> </svg>