<svg fill="none" xmlns="http://www.w3.org/2000/svg" viewBox="7.72 29.76 83.99 34.99"> <path d="M33.5788 53.6948C30.7314 53.6948 28.4263 55.9999 28.4263 58.8474C28.4263 61.6948 30.7314 63.9999 33.5788 63.9999C36.4263 63.9999 38.7314 61.6948 38.7314 58.8474C38.7314 55.9999 36.4263 53.6948 33.5788 53.6948Z" stroke="#15273D" stroke-width="1.5" stroke-miterlimit="10"></path> <path d="M79.1892 53.6948C76.3417 53.6948 74.0366 55.9999 74.0366 58.8474C74.0366 61.6948 76.3417 63.9999 79.1892 63.9999C82.0366 63.9999 84.3417 61.6948 84.3417 58.8474C84.3417 55.9999 82.0366 53.6948 79.1892 53.6948Z" stroke="#15273D" stroke-width="1.5" stroke-miterlimit="10"></path> <path d="M89.3584 54.8644L88.6296 53.0169C88.6296 52.8644 88.7483 52.7457 88.9008 52.7457H90.9517C90.9517 51.4576 87.6296 31.3898 79.511 30.8813C75.6127 30.6101 12.5449 30.5084 12.5449 30.5084C11.494 30.6271 10.4262 31.644 10.0872 32.8474C8.74826 37.7966 8.44317 43.6101 8.47707 48.3389L8.78216 55.305C8.88385 56.644 8.98555 57.4406 8.98555 57.4406C8.98555 58.2542 9.64656 58.9322 10.4771 58.9322H26.833C26.833 58.9322 26.833 58.8813 26.833 58.8644C26.833 55.1355 29.85 52.1186 33.5788 52.1186C37.3076 52.1186 40.3245 55.1355 40.3245 58.8644C40.3245 58.8813 40.3245 58.9152 40.3245 58.9322H72.4601C72.4601 58.9322 72.4601 58.8813 72.4601 58.8644C72.4601 55.1355 75.4771 52.1186 79.2059 52.1186C82.9347 52.1186 85.9516 55.1355 85.9516 58.8644C85.9516 58.8813 85.9516 58.9152 85.9516 58.9322H88.8839C89.6974 58.9322 90.85 58.2711 90.85 57.4406C90.85 57.4406 90.9347 56.2711 90.9686 55.3898L89.6805 55.1355C89.5279 55.1355 89.4093 55.0169 89.4093 54.8644H89.3584ZM20.7483 47.8474H10.9177C10.9177 47.8474 11.2906 39.3728 12.5449 34.5254H20.7483V47.8474ZM33.2567 47.8474H22.85V34.5423H33.2567V47.8644V47.8474ZM45.9347 47.8474H35.5279V34.5423H45.9347V47.8644V47.8474ZM58.6127 47.8474H48.2059V34.5423H58.6127V47.8644V47.8474ZM69.9347 57.5423H60.9516V34.5593H69.9347V57.5593V57.5423ZM72.4432 47.8474V34.5423H82.1889C84.9177 37.1694 88.1381 47.8644 88.1381 47.8644H72.4432V47.8474Z" stroke="#15273D" stroke-width="1.5" stroke-miterlimit="10"></path> </svg>
