<svg fill="none" xmlns="http://www.w3.org/2000/svg" viewBox="9.42 26.37 82.69 39.28"> <path d="M91.322 54.5769C91.322 54.5769 91.5423 51.7973 90.5254 51.7973C90.305 51.9837 89.966 52.1193 89.5593 52.1193H88.1525C87.4915 52.1193 86.9491 51.7803 86.9491 51.3566V48.9668C86.9491 48.543 87.4915 48.2041 88.1525 48.2041H89.3898C88.2881 45.3058 73.4745 43.9329 73.4745 43.9329C73.4745 43.9329 58.6779 31.9329 56.3559 30.3227C54.1525 28.8142 49.4067 27.9668 47.1525 27.8142C45.7288 27.7125 14.3898 27.1193 14.3898 27.1193C14.3728 27.1193 10.1694 26.9668 10.1694 31.2888V57.221C10.1694 58.8651 11.7627 58.6786 11.7627 58.6786H13.966C13.966 58.5769 13.9321 58.4752 13.9321 58.3736C13.9321 53.6617 17.7457 49.8312 22.4745 49.8312C27.2033 49.8312 31.0169 53.543 31.0169 58.2549C31.0169 58.3566 30.983 58.4583 30.983 58.56H42.5084H69.5932C69.5932 58.4922 69.5762 58.4244 69.5762 58.3566C69.5762 53.6447 73.3898 49.8142 78.1186 49.8142C82.8474 49.8142 86.661 53.6278 86.661 58.3566C86.661 58.4244 86.644 58.4922 86.644 58.56H88.8474C91.5084 58.56 91.3559 56.2888 91.3559 56.2888V54.56L91.322 54.5769ZM67.4067 43.5769H47.5254C47.322 43.5769 47.1355 43.3905 47.1355 43.1702V34.0854C47.1355 33.8651 47.305 33.6786 47.5254 33.6786H57.0508C57.2542 33.6786 57.7627 34.1871 57.7627 34.1871L68.8135 43.1702C68.8135 43.3905 67.6271 43.56 67.4067 43.56V43.5769Z" stroke="#15273D" stroke-width="1.5" stroke-miterlimit="10"></path> <path d="M22.4746 51.8481C18.8645 51.8481 15.9492 54.7634 15.9492 58.3736C15.9492 61.9837 18.8814 64.899 22.4746 64.899C26.0679 64.899 29.0001 61.9837 29.0001 58.3736C29.0001 54.7634 26.0848 51.8481 22.4746 51.8481ZM22.4068 62.577C20.1696 62.577 18.339 60.7634 18.339 58.5092C18.339 56.2549 20.1526 54.4414 22.4068 54.4414C24.6611 54.4414 26.4577 56.2549 26.4577 58.5092C26.4577 60.7634 24.6441 62.577 22.4068 62.577Z" stroke="#15273D" stroke-width="1.5" stroke-miterlimit="10"></path> <path d="M78.1016 51.8481C74.4914 51.8481 71.5762 54.7634 71.5762 58.3736C71.5762 61.9837 74.4914 64.899 78.1016 64.899C81.7118 64.899 84.627 61.9837 84.627 58.3736C84.627 54.7634 81.7118 51.8481 78.1016 51.8481ZM78.0338 62.577C75.7965 62.577 73.966 60.7634 73.966 58.5092C73.966 56.2549 75.7796 54.4414 78.0338 54.4414C80.288 54.4414 82.0846 56.2549 82.0846 58.5092C82.0846 60.7634 80.2711 62.577 78.0338 62.577Z" stroke="#15273D" stroke-width="1.5" stroke-miterlimit="10"></path> </svg>
